<?xml version="1.0" encoding="iso-8859-1"?>
<!-- Generator: Adobe Illustrator 19.0.0, SVG Export Plug-In . SVG Version: 6.00 Build 0)  -->
<svg version="1.1" id="Layer_1" xmlns="http://www.w3.org/2000/svg" xmlns:xlink="http://www.w3.org/1999/xlink" x="0px" y="0px"
	 viewBox="0 0 512 512" style="enable-background:new 0 0 512 512;" xml:space="preserve">
<polyline style="fill:#FFFFFF;" points="71.892,111.915 71.892,504.146 440.108,504.146 440.108,111.915 "/>
<rect x="71.891" y="111.915" style="fill:#889EBD;" width="368.219" height="32.019"/>
<rect x="247.999" y="111.915" style="fill:#6A86AC;" width="192.11" height="32.019"/>
<path style="fill:#95C11F;" d="M440.108,504.146h-64.038c0,0,65.395-31.871,64.038-80.047V504.146z"/>
<path style="fill:#6A86AC;" d="M440.108,416.094h-88.052v88.052C352.057,504.146,435.643,508.518,440.108,416.094z"/>
<rect x="71.144" y="7.854" style="fill:#AACD4C;" width="368.962" height="104.061"/>
<rect x="256" y="7.854" style="fill:#95C11F;" width="184.109" height="104.061"/>
<g>
	<rect x="103.914" y="136.074" style="fill:#1D1D1B;" width="16.01" height="15.708"/>
	<rect x="135.927" y="136.074" style="fill:#1D1D1B;" width="16.01" height="15.708"/>
	<rect x="167.951" y="136.074" style="fill:#1D1D1B;" width="16.01" height="15.708"/>
	<rect x="199.964" y="136.074" style="fill:#1D1D1B;" width="16.01" height="15.708"/>
	<rect x="231.988" y="136.074" style="fill:#1D1D1B;" width="16.01" height="15.708"/>
	<rect x="264.001" y="136.074" style="fill:#1D1D1B;" width="16.01" height="15.708"/>
	<rect x="296.024" y="136.074" style="fill:#1D1D1B;" width="16.01" height="15.708"/>
	<rect x="328.037" y="136.074" style="fill:#1D1D1B;" width="16.01" height="15.708"/>
	<rect x="360.061" y="136.074" style="fill:#1D1D1B;" width="16.01" height="15.708"/>
	<rect x="392.084" y="136.074" style="fill:#1D1D1B;" width="16.01" height="15.708"/>
	<path style="fill:#1D1D1B;" d="M64.038,512h383.925V0H64.038V512z M79.746,15.708h352.508v88.353H79.746V15.708z M432.254,496.292
		H404.68c10.964-7.234,20.363-16.652,27.574-27.632V496.292z M359.808,496.022l0.091-72.073h71.973
		C428.167,461.972,397.83,492.308,359.808,496.022z M344.212,408.241l-0.113,88.051H79.746V151.787h8.156v-15.708h-8.156v-16.31
		h352.508v16.31h-8.156v15.708h8.156v256.453H344.212z"/>
</g>
<g>
	<polygon style="fill:#FFFFFF;" points="182.205,34.52 167.949,48.777 153.691,34.52 142.584,45.628 156.84,59.884 142.584,74.141 
		153.691,85.249 167.949,70.992 182.205,85.249 193.312,74.141 179.055,59.884 193.312,45.628 	"/>
	<polygon style="fill:#FFFFFF;" points="369.417,45.829 358.309,34.72 344.052,48.978 329.795,34.72 318.688,45.829 332.945,60.086 
		318.688,74.342 329.795,85.451 344.052,71.193 358.309,85.451 369.417,74.342 355.16,60.086 	"/>
</g>
<rect x="151.939" y="216.122" style="fill:#1D1D1B;" width="208.122" height="15.708"/>
<rect x="231.988" y="248.146" style="fill:#6A86AC;" width="48.028" height="15.708"/>
<g>
	<rect x="151.939" y="280.17" style="fill:#1D1D1B;" width="16.01" height="15.708"/>
	<rect x="183.952" y="280.17" style="fill:#1D1D1B;" width="16.01" height="15.708"/>
	<rect x="215.976" y="280.17" style="fill:#1D1D1B;" width="16.01" height="15.708"/>
	<rect x="247.999" y="280.17" style="fill:#1D1D1B;" width="16.01" height="15.708"/>
	<rect x="280.012" y="280.17" style="fill:#1D1D1B;" width="16.01" height="15.708"/>
	<rect x="312.036" y="280.17" style="fill:#1D1D1B;" width="16.01" height="15.708"/>
</g>
<rect x="344.049" y="280.17" style="fill:#6A86AC;" width="16.01" height="15.708"/>
<g>
	<rect x="151.939" y="312.183" style="fill:#1D1D1B;" width="16.01" height="15.708"/>
	<rect x="183.952" y="312.183" style="fill:#1D1D1B;" width="16.01" height="15.708"/>
	<rect x="215.976" y="312.183" style="fill:#1D1D1B;" width="16.01" height="15.708"/>
	<rect x="247.999" y="312.183" style="fill:#1D1D1B;" width="16.01" height="15.708"/>
	<rect x="280.012" y="312.183" style="fill:#1D1D1B;" width="16.01" height="15.708"/>
	<rect x="312.036" y="312.183" style="fill:#1D1D1B;" width="16.01" height="15.708"/>
</g>
<rect x="344.049" y="312.183" style="fill:#6A86AC;" width="16.01" height="15.708"/>
<g>
	<rect x="151.939" y="344.206" style="fill:#1D1D1B;" width="16.01" height="15.708"/>
	<rect x="183.952" y="344.206" style="fill:#1D1D1B;" width="16.01" height="15.708"/>
	<rect x="215.976" y="344.206" style="fill:#1D1D1B;" width="16.01" height="15.708"/>
	<rect x="247.999" y="344.206" style="fill:#1D1D1B;" width="16.01" height="15.708"/>
	<rect x="280.012" y="344.206" style="fill:#1D1D1B;" width="16.01" height="15.708"/>
	<rect x="312.036" y="344.206" style="fill:#1D1D1B;" width="16.01" height="15.708"/>
</g>
<rect x="344.049" y="344.206" style="fill:#6A86AC;" width="16.01" height="15.708"/>
<g>
	<rect x="151.939" y="376.219" style="fill:#1D1D1B;" width="16.01" height="15.708"/>
	<rect x="183.952" y="376.219" style="fill:#1D1D1B;" width="16.01" height="15.708"/>
	<rect x="215.976" y="376.219" style="fill:#1D1D1B;" width="16.01" height="15.708"/>
	<rect x="247.999" y="376.219" style="fill:#1D1D1B;" width="16.01" height="15.708"/>
	<rect x="280.012" y="376.219" style="fill:#1D1D1B;" width="16.01" height="15.708"/>
	<rect x="312.036" y="376.219" style="fill:#1D1D1B;" width="16.01" height="15.708"/>
</g>
<rect x="344.049" y="376.219" style="fill:#6A86AC;" width="16.01" height="15.708"/>
<rect x="95.903" y="464.279" style="fill:#1D1D1B;" width="16.01" height="15.708"/>
<rect x="127.927" y="464.279" style="fill:#6A86AC;" width="16.01" height="15.708"/>
<rect x="159.94" y="464.279" style="fill:#1D1D1B;" width="16.01" height="15.708"/>
<g>
</g>
<g>
</g>
<g>
</g>
<g>
</g>
<g>
</g>
<g>
</g>
<g>
</g>
<g>
</g>
<g>
</g>
<g>
</g>
<g>
</g>
<g>
</g>
<g>
</g>
<g>
</g>
<g>
</g>
</svg>
