<?xml version="1.0" encoding="iso-8859-1"?>
<!-- Generator: Adobe Illustrator 19.0.0, SVG Export Plug-In . SVG Version: 6.00 Build 0)  -->
<svg version="1.1" id="Layer_1" xmlns="http://www.w3.org/2000/svg" xmlns:xlink="http://www.w3.org/1999/xlink" x="0px" y="0px"
	 viewBox="0 0 473.931 473.931" style="enable-background:new 0 0 473.931 473.931;" xml:space="preserve">
<circle style="fill:#40BCA3;" cx="236.966" cy="236.966" r="236.966"/>
<path style="fill:#E84849;" d="M55.973,236.805c0-100.754,81.668-182.433,182.433-182.433c100.758,0,182.426,81.679,182.426,182.433
	c0,100.758-81.668,182.437-182.426,182.437C137.641,419.242,55.973,337.563,55.973,236.805z"/>
<circle style="fill:#F6A2A3;" cx="238.403" cy="236.816" r="157.603"/>
<g>
	<ellipse style="fill:#E9E9EA;" cx="238.403" cy="236.816" rx="144.96" ry="141.614"/>
	<ellipse style="fill:#E9E9EA;" cx="238.406" cy="246.414" rx="144.963" ry="141.614"/>
</g>
<g>
	<circle style="fill:#626463;" cx="239.51" cy="235.506" r="24.209"/>
	<path style="fill:#626463;" d="M241.856,241.209c-1.717,1.721-5.276,0.95-7.936-1.714l0,0c-2.668-2.668-3.435-6.223-1.71-7.94
		l56.212-56.224c1.717-1.721,5.276-0.954,7.944,1.721l0,0c2.668,2.66,3.435,6.219,1.71,7.936L241.856,241.209z"/>
	<path style="fill:#626463;" d="M233.916,238.679c-1.972-1.964-1.972-5.16,0-7.132l0,0c1.964-1.964,5.16-1.968,7.132,0
		l81.514,81.522c1.972,1.968,1.972,5.164,0,7.136l0,0c-1.957,1.964-5.16,1.964-7.132,0L233.916,238.679z"/>
</g>
<path style="fill:#DDDFDF;" d="M238.507,110.363c115.665,0.965,143.99,108.489,143.99,108.489
	C371.71,149.031,311.251,95.19,238.403,95.19s-133.094,53.84-143.874,123.661C94.532,218.852,122.842,109.398,238.507,110.363z"/>
<g>
</g>
<g>
</g>
<g>
</g>
<g>
</g>
<g>
</g>
<g>
</g>
<g>
</g>
<g>
</g>
<g>
</g>
<g>
</g>
<g>
</g>
<g>
</g>
<g>
</g>
<g>
</g>
<g>
</g>
</svg>
