<?xml version="1.0" standalone="no"?>
<!DOCTYPE svg PUBLIC "-//W3C//DTD SVG 20010904//EN"
 "http://www.w3.org/TR/2001/REC-SVG-20010904/DTD/svg10.dtd">
<svg version="1.0" xmlns="http://www.w3.org/2000/svg"
 width="457.000000pt" height="1000.000000pt" viewBox="0 0 457.000000 1000.000000"
 preserveAspectRatio="xMidYMid meet">

<g transform="translate(0.000000,1000.000000) scale(0.100000,-0.100000)"
fill="#000000" stroke="none">
<path d="M2353 9585 c-113 -31 -179 -79 -219 -161 -26 -53 -27 -59 -18 -152 4
-53 8 -140 9 -192 0 -74 4 -102 18 -123 9 -15 22 -27 27 -27 5 0 25 -14 45
-31 39 -35 42 -50 23 -140 -14 -71 -1 -110 51 -145 51 -33 167 -48 266 -35
155 22 198 79 164 214 -14 58 0 91 55 125 25 15 50 39 57 54 10 25 21 215 20
353 0 126 -88 219 -243 261 -67 17 -187 17 -255 -1z m23 -350 c39 -16 67 -67
57 -106 -25 -104 -206 -121 -227 -21 -9 41 17 115 45 129 32 17 82 16 125 -2z
m334 6 c29 -8 49 -54 49 -114 2 -78 -81 -112 -167 -68 -64 33 -80 98 -37 150
32 37 91 50 155 32z m-184 -196 c27 -62 30 -85 12 -103 -16 -16 -90 -15 -113
2 -18 13 -18 15 -1 62 41 111 66 120 102 39z m-107 -219 c99 -11 190 2 216 30
12 13 25 24 29 24 13 0 5 -67 -13 -106 -25 -56 -62 -67 -191 -62 -115 4 -132
14 -155 90 -20 67 -11 87 24 55 19 -18 42 -26 90 -31z"/>
<path d="M2310 8837 c0 -29 31 -95 48 -102 36 -15 187 -17 227 -3 35 11 42 19
57 63 18 56 17 65 -7 42 -22 -23 -69 -29 -183 -25 -81 2 -104 7 -121 22 -18
17 -21 17 -21 3z"/>
<path d="M2382 8539 c-20 -32 -6 -59 31 -60 72 -2 161 2 169 7 12 8 10 48 -4
62 -15 15 -54 16 -63 2 -3 -5 -19 -10 -35 -10 -16 0 -32 5 -35 10 -11 17 -50
11 -63 -11z"/>
<path d="M2369 8437 c-15 -34 3 -59 36 -51 13 3 34 -1 47 -8 27 -17 35 -17 66
1 13 7 35 10 48 7 29 -8 39 11 30 50 -7 25 -9 26 -49 19 -53 -9 -71 -9 -124 0
-39 7 -43 6 -54 -18z"/>
<path d="M2366 8351 c-25 -27 -11 -48 37 -55 23 -4 58 -9 78 -12 22 -4 39 -1
43 5 4 6 25 11 47 11 34 0 39 3 39 23 0 13 -5 28 -12 35 -15 15 -54 16 -63 2
-3 -5 -26 -10 -50 -10 -24 0 -47 5 -50 10 -10 16 -51 11 -69 -9z"/>
<path d="M2340 8265 c-21 -26 -8 -50 30 -53 19 -2 39 -8 45 -13 12 -12 122
-12 130 1 3 6 23 10 45 10 42 0 57 19 40 51 -13 23 -75 26 -104 4 -26 -19 -70
-19 -86 0 -16 19 -84 20 -100 0z"/>
<path d="M2030 8150 c-47 -10 -119 -27 -160 -39 -87 -25 -130 -26 -192 -7 -25
7 -51 10 -57 6 -19 -11 -1 -40 38 -59 64 -32 115 -33 260 -6 155 29 217 31
291 9 63 -19 101 -13 146 21 18 14 37 25 43 25 15 0 14 15 -2 28 -25 21 -131
42 -207 41 -41 0 -113 -9 -160 -19z"/>
<path d="M2650 8159 c-62 -18 -90 -31 -90 -43 1 -15 100 -76 125 -76 11 0 45
7 75 15 78 21 136 19 290 -11 121 -24 142 -25 194 -14 66 14 132 62 107 79 -9
6 -31 4 -60 -5 -60 -18 -115 -18 -178 1 -187 56 -381 78 -463 54z"/>
<path d="M2381 8061 c-17 -16 -31 -34 -31 -39 0 -6 16 -20 36 -32 20 -13 39
-32 43 -43 6 -16 17 -20 47 -20 34 0 47 7 88 46 36 36 46 51 41 67 -10 32 -57
50 -128 50 -58 0 -68 -3 -96 -29z"/>
<path d="M1572 8008 c-17 -17 -15 -53 6 -70 9 -9 34 -22 56 -29 21 -8 49 -24
62 -36 21 -19 24 -31 24 -92 0 -63 4 -78 46 -159 l45 -89 46 -7 c25 -3 113 -6
195 -6 133 0 149 2 144 16 -3 9 -6 20 -6 26 0 8 -50 9 -163 4 -190 -8 -217 -3
-217 45 0 43 50 89 129 119 34 12 61 24 61 25 0 2 -20 3 -45 2 -50 -2 -70 12
-60 42 10 33 70 44 152 27 37 -8 70 -12 72 -10 2 2 -4 15 -13 28 -13 20 -27
26 -76 32 -33 4 -60 10 -60 14 0 4 10 14 22 22 22 15 21 16 -30 27 -29 6 -92
11 -140 11 -96 1 -156 17 -179 49 -16 23 -52 28 -71 9z"/>
<path d="M3319 7996 c-27 -32 -81 -44 -214 -50 -60 -3 -120 -8 -133 -12 l-23
-7 26 -17 c32 -21 26 -25 -43 -35 -39 -5 -57 -13 -72 -32 -11 -15 -19 -28 -17
-29 2 -2 19 1 38 7 19 5 63 10 98 11 56 1 66 -1 83 -22 20 -24 20 -24 -3 -43
-17 -14 -32 -17 -59 -13 -26 5 -15 -4 48 -35 69 -33 86 -46 98 -75 16 -38 8
-67 -23 -78 -10 -4 -93 -4 -185 0 l-168 7 0 -27 0 -26 163 1 c89 1 175 4 191
8 25 5 37 20 73 86 37 70 43 88 43 145 0 89 13 109 89 146 56 27 77 47 80 76
2 13 -31 38 -50 38 -10 0 -29 -11 -40 -24z"/>
<path d="M2020 7908 c-22 -9 -10 -13 90 -34 112 -23 255 -31 275 -16 12 8 48
62 41 62 -2 0 -20 -7 -39 -15 -46 -19 -115 -19 -192 0 -70 17 -140 18 -175 3z"/>
<path d="M2540 7914 c0 -3 9 -19 21 -35 20 -28 23 -29 102 -29 45 0 122 9 171
20 50 11 101 20 115 20 l26 1 -25 14 c-32 18 -99 18 -175 0 -77 -19 -146 -19
-192 0 -40 17 -43 17 -43 9z"/>
<path d="M2431 7891 c-10 -10 -22 -38 -26 -61 -10 -59 16 -94 73 -98 60 -5 86
24 80 89 -3 28 -13 58 -23 69 -23 26 -79 26 -104 1z"/>
<path d="M1475 7855 c-42 -15 -85 -56 -85 -81 0 -8 11 -36 24 -62 30 -59 62
-162 70 -227 4 -31 -10 -228 -38 -530 l-45 -480 -51 -97 c-27 -54 -50 -106
-50 -117 0 -22 25 -45 39 -36 6 3 19 -3 31 -15 25 -25 32 -25 48 0 16 27 61
26 103 -2 28 -19 39 -21 67 -13 17 5 32 15 32 21 0 7 -9 50 -20 96 -52 221
-82 599 -68 843 7 115 20 179 79 385 30 104 30 219 2 283 -21 44 -24 47 -60
47 -21 -1 -56 -7 -78 -15z"/>
<path d="M3361 7839 c-45 -74 -40 -188 18 -389 45 -156 61 -268 61 -431 0
-219 -35 -538 -79 -724 -21 -85 -20 -95 8 -95 9 0 22 -5 28 -11 9 -9 20 -5 43
15 39 33 94 36 110 6 14 -26 32 -25 48 1 9 14 19 18 32 14 15 -5 23 0 31 19
10 21 6 35 -34 108 -25 46 -50 101 -56 123 -18 66 -93 912 -88 995 4 76 31
167 73 252 20 40 22 51 12 73 -15 33 -75 64 -138 72 -47 5 -49 4 -69 -28z"/>
<path d="M1916 7804 c-26 -26 -9 -34 74 -34 49 0 101 -7 141 -20 79 -24 182
-35 242 -26 44 7 45 8 29 27 -14 16 -30 19 -98 19 -55 0 -113 8 -178 25 -112
29 -187 32 -210 9z"/>
<path d="M2835 7794 c-60 -16 -118 -24 -175 -24 -73 0 -87 -3 -97 -19 -12 -18
-9 -20 33 -27 61 -9 159 2 237 26 39 12 91 20 139 20 81 0 105 12 73 37 -27
19 -107 15 -210 -13z"/>
<path d="M1964 7727 c-119 -54 -152 -85 -138 -129 6 -21 8 -21 228 -14 281 8
316 12 316 39 0 16 -5 19 -27 14 -107 -21 -211 -29 -320 -25 -183 7 -189 28
-26 93 75 30 93 40 77 46 -28 11 -32 10 -110 -24z"/>
<path d="M2896 7751 c-14 -5 5 -18 84 -52 153 -66 146 -79 -46 -87 -84 -3
-152 1 -228 13 -59 9 -110 14 -113 11 -3 -3 -3 -12 0 -20 8 -21 107 -30 342
-30 l200 -1 3 27 c4 38 -32 69 -125 108 -96 40 -95 40 -117 31z"/>
<path d="M2005 7695 c-54 -23 -101 -47 -103 -53 -3 -10 168 -21 237 -14 l43 4
-6 42 c-4 22 -10 44 -14 48 -22 21 -63 14 -157 -27z"/>
<path d="M2818 7729 c-15 -9 -45 -86 -36 -94 13 -13 288 -9 288 4 0 8 -210
101 -227 101 -4 0 -16 -5 -25 -11z"/>
<path d="M2417 7712 c-8 -2 -18 -10 -21 -19 -14 -34 -18 -250 -6 -313 6 -36
16 -105 21 -154 10 -99 25 -126 71 -126 46 0 68 31 68 98 1 31 7 86 15 122 15
67 19 247 9 337 l-7 51 -67 4 c-37 2 -75 2 -83 0z"/>
<path d="M2280 7518 c-25 -6 -143 -10 -263 -10 -184 0 -219 -2 -224 -15 -9
-22 6 -31 92 -53 105 -26 164 -25 293 4 59 14 122 26 141 28 28 2 36 8 42 31
8 31 -1 33 -81 15z"/>
<path d="M2600 7506 c0 -19 6 -27 23 -30 12 -2 78 -16 147 -30 148 -31 198
-32 303 -7 86 20 103 31 93 57 -6 15 -20 16 -149 10 -127 -6 -292 3 -384 20
-30 6 -33 4 -33 -20z"/>
<path d="M2105 7414 c-55 -12 -100 -12 -180 3 l-30 5 45 -47 c44 -45 46 -46
90 -40 71 11 170 55 170 77 0 21 -10 21 -95 2z"/>
<path d="M2770 7411 c0 -22 73 -56 156 -74 l54 -11 42 42 c23 23 40 44 37 46
-3 3 -34 1 -69 -4 -48 -7 -83 -5 -135 5 -87 19 -85 19 -85 -4z"/>
<path d="M2285 7413 c-11 -3 -63 -24 -115 -46 -90 -40 -100 -42 -195 -42 -55
0 -122 4 -148 9 -48 9 -49 8 -45 -15 2 -15 16 -31 38 -42 66 -35 271 -5 490
71 46 16 56 23 58 45 3 25 0 27 -30 26 -18 -1 -42 -4 -53 -6z"/>
<path d="M2596 7404 c-3 -9 -6 -20 -6 -24 0 -13 230 -86 329 -104 46 -9 109
-16 140 -16 67 0 126 26 126 55 0 17 -6 20 -35 17 -19 -1 -84 -4 -145 -5
l-110 -2 -117 48 c-122 49 -172 58 -182 31z"/>
<path d="M2265 7256 c-60 -29 -141 -72 -180 -95 -87 -51 -133 -54 -221 -12
-34 16 -65 34 -68 40 -16 25 -25 9 -11 -19 14 -27 14 -33 -1 -62 -16 -30 -18
-56 -13 -158 1 -19 -2 -60 -6 -90 -6 -45 -4 -58 9 -69 10 -9 16 -29 16 -58 0
-113 74 -162 170 -113 49 25 91 81 171 230 80 148 159 271 220 341 43 49 48
61 43 88 -4 17 -9 31 -13 31 -3 -1 -55 -25 -116 -54z m-355 -163 c52 -19 81
-23 145 -21 l80 3 3 -35 c5 -64 -59 -130 -126 -130 -46 0 -122 33 -166 71 -40
35 -46 46 -46 79 0 53 9 73 29 64 9 -4 45 -18 81 -31z m55 -242 c65 -20 76
-33 50 -61 -41 -45 -113 -37 -178 21 -45 39 -63 76 -52 109 5 16 11 15 63 -16
31 -19 84 -43 117 -53z"/>
<path d="M2576 7294 c-13 -33 -5 -61 25 -90 51 -48 125 -159 217 -328 119
-217 175 -276 260 -276 58 0 102 66 102 155 0 14 7 36 15 49 14 21 14 31 1 87
-9 41 -11 70 -5 81 14 26 11 83 -7 128 -14 35 -15 45 -4 66 18 33 8 38 -24 13
-39 -31 -120 -59 -169 -59 -31 0 -57 9 -91 30 -43 28 -300 160 -310 160 -2 0
-7 -7 -10 -16z m584 -190 c24 -63 -2 -110 -88 -157 -106 -58 -193 -43 -232 39
-12 24 -20 54 -18 66 3 22 7 23 74 20 75 -4 183 17 219 43 28 20 34 18 45 -11z
m20 -196 c0 -89 -120 -171 -200 -138 -32 13 -55 44 -46 59 3 5 23 12 43 16 46
8 156 59 173 80 20 24 30 18 30 -17z"/>
<path d="M2770 7285 c0 -28 13 -45 34 -45 22 1 88 28 71 29 -5 1 -31 8 -57 16
-40 12 -48 12 -48 0z"/>
<path d="M2115 7276 l-40 -12 34 -12 c56 -20 81 -16 81 13 0 28 -13 30 -75 11z"/>
<path d="M2375 7033 c-9 -21 -15 -49 -13 -63 3 -25 3 -25 115 -27 136 -2 143
2 118 77 l-17 50 -94 0 -94 0 -15 -37z"/>
<path d="M2418 6923 c-23 -4 -28 -11 -39 -59 -7 -30 -10 -56 -7 -59 3 -3 17
-1 32 5 34 12 111 13 153 1 17 -5 34 -7 36 -5 3 3 -1 28 -7 57 -9 41 -16 52
-36 58 -27 8 -89 8 -132 2z"/>
<path d="M2402 6788 c-19 -24 -33 -97 -22 -117 9 -17 21 -19 102 -19 59 0 96
4 100 11 12 19 9 65 -6 102 l-15 35 -74 0 c-48 0 -78 -5 -85 -12z"/>
<path d="M2320 6690 c-13 -9 -13 -11 0 -20 24 -16 40 -12 40 10 0 22 -16 26
-40 10z"/>
<path d="M2607 6680 c-5 -21 8 -26 32 -11 7 5 10 14 7 20 -11 18 -33 13 -39
-9z"/>
<path d="M2376 6631 c-13 -23 -15 -69 -6 -92 15 -35 36 -42 125 -41 59 1 72 4
87 22 18 22 24 86 10 106 -7 10 -210 15 -216 5z"/>
<path d="M2327 6564 c-8 -8 1 -24 14 -24 5 0 9 7 9 15 0 15 -12 20 -23 9z"/>
<path d="M2616 6555 c-3 -9 0 -15 9 -15 16 0 20 16 6 24 -5 3 -11 -1 -15 -9z"/>
<path d="M2381 6475 c-64 -85 -61 -78 -44 -113 l15 -32 129 0 c121 0 129 1
143 22 22 32 20 43 -16 91 l-31 42 -95 0 c-51 0 -97 -4 -101 -10z"/>
<path d="M2290 6391 c0 -6 5 -13 10 -16 6 -3 10 1 10 9 0 9 -4 16 -10 16 -5 0
-10 -4 -10 -9z"/>
<path d="M2656 6384 c-5 -14 -4 -15 9 -4 17 14 19 20 6 20 -5 0 -12 -7 -15
-16z"/>
<path d="M2395 6313 c-23 -3 -37 -14 -55 -44 -14 -22 -24 -42 -24 -44 1 -3 4
-19 7 -35 10 -49 51 -62 174 -58 101 3 106 4 129 31 30 35 30 58 0 106 -21 33
-31 39 -72 45 -48 6 -105 6 -159 -1z"/>
<path d="M2275 6231 c-19 -8 -19 -8 3 -20 19 -10 22 -9 22 9 0 11 -1 20 -2 19
-2 0 -12 -4 -23 -8z"/>
<path d="M2667 6219 c-6 -22 6 -25 22 -5 9 10 8 15 -3 19 -8 3 -16 -2 -19 -14z"/>
<path d="M1432 6207 c-6 -7 -15 -50 -20 -97 -10 -88 -35 -150 -329 -810 l-70
-155 25 -13 c21 -10 27 -10 34 0 4 7 8 16 8 19 0 4 50 112 111 240 132 279
188 407 241 553 21 60 55 131 73 157 19 26 35 54 35 63 0 18 -55 56 -81 56 -9
0 -21 -6 -27 -13z"/>
<path d="M3460 6201 c-19 -10 -36 -25 -38 -32 -1 -8 15 -38 37 -67 25 -34 52
-92 76 -160 55 -159 352 -813 373 -819 4 -1 15 4 24 11 17 12 8 34 -108 297
-244 552 -265 604 -273 689 -5 43 -11 83 -15 89 -10 16 -36 14 -76 -8z"/>
<path d="M1325 6198 c-2 -7 -11 -43 -19 -79 -15 -68 -107 -309 -260 -684 -87
-213 -97 -253 -71 -275 23 -19 35 -2 35 54 0 121 57 269 192 502 85 145 134
240 154 296 17 50 8 198 -13 198 -7 0 -16 -6 -18 -12z"/>
<path d="M3600 6119 c0 -85 3 -97 38 -173 22 -45 74 -142 117 -216 143 -246
195 -377 195 -496 0 -67 9 -88 33 -78 39 14 29 48 -116 410 -161 400 -199 502
-217 587 -9 46 -15 57 -31 57 -17 0 -19 -8 -19 -91z"/>
<path d="M1835 6128 c-42 -9 -85 -42 -85 -66 0 -8 16 -36 35 -62 89 -122 129
-258 123 -429 -4 -133 -12 -146 -88 -145 -27 0 -55 6 -64 13 -26 21 -53 3 -76
-52 -27 -62 -31 -153 -8 -189 9 -14 17 -60 21 -113 14 -199 68 -448 196 -902
114 -404 136 -537 129 -815 l-3 -155 -42 -63 c-36 -53 -43 -71 -43 -112 0
-101 50 -137 140 -102 25 10 54 23 65 31 26 17 68 16 130 -2 88 -27 111 -9
121 94 9 78 3 96 -52 166 -65 83 -93 150 -158 375 -30 107 -83 275 -116 374
-111 326 -130 427 -130 682 0 172 -14 271 -51 368 -21 57 -15 71 34 81 32 7
67 31 67 46 0 5 -11 25 -25 46 -34 50 -32 107 6 136 34 25 64 16 90 -26 15
-25 19 -51 19 -120 0 -88 0 -89 34 -123 47 -47 98 -47 152 -2 44 36 132 136
171 192 l25 38 -17 67 c-15 62 -18 68 -40 63 -30 -5 -129 24 -149 44 -22 22
-20 70 4 92 64 59 197 97 285 81 67 -12 172 -64 192 -96 37 -55 -26 -113 -127
-116 l-51 -2 -14 -49 c-8 -27 -15 -60 -15 -72 0 -40 154 -230 212 -260 62 -32
137 -4 157 59 6 17 10 64 9 104 -1 52 4 79 16 97 35 55 85 57 112 4 18 -35 13
-68 -21 -119 -29 -45 -19 -65 41 -80 25 -7 48 -18 51 -24 2 -7 -7 -48 -20 -92
-35 -111 -46 -204 -45 -393 0 -208 -17 -297 -113 -584 -38 -115 -97 -301 -130
-415 -70 -240 -89 -286 -157 -375 -28 -36 -53 -74 -56 -84 -11 -34 11 -154 33
-175 19 -19 21 -19 85 -3 86 21 98 20 156 -9 73 -37 119 -42 153 -15 25 20 27
27 27 88 0 61 -3 72 -37 121 l-38 55 0 240 c0 291 6 326 116 721 135 487 170
641 195 865 8 80 23 160 31 179 11 24 14 52 10 91 -5 54 -35 132 -57 145 -5 3
-31 -1 -57 -10 -58 -20 -108 -13 -125 18 -9 14 -13 63 -13 142 0 97 5 134 24
195 28 91 58 152 106 215 32 41 35 51 26 71 -16 36 -66 57 -138 57 -53 0 -76
-7 -136 -36 -95 -48 -202 -139 -233 -198 -12 -26 -31 -49 -40 -53 -27 -10 -80
12 -94 39 -12 23 -19 25 -86 25 -63 0 -75 -3 -84 -20 -6 -11 -25 -27 -42 -36
-41 -21 -71 -8 -97 43 -33 66 -161 173 -254 212 -54 24 -121 31 -172 19z"/>
<path d="M2328 6102 c-6 -15 -11 -48 -12 -74 -1 -37 4 -52 22 -70 20 -20 34
-23 123 -26 55 -2 111 -1 125 2 59 15 78 71 53 159 -10 37 -12 38 -42 30 -40
-9 -181 -10 -225 0 -29 6 -34 4 -44 -21z"/>
<path d="M2210 6102 c0 -21 53 -72 75 -72 7 0 15 13 17 29 4 26 0 30 -31 41
-20 6 -42 14 -48 16 -8 4 -13 -2 -13 -14z"/>
<path d="M2700 6102 c-19 -9 -36 -17 -38 -18 -8 -4 12 -54 22 -54 18 0 64 43
71 68 8 27 -5 28 -55 4z"/>
<path d="M4087 5158 c-21 -11 -22 -32 -1 -49 14 -11 18 -10 30 6 26 35 7 64
-29 43z"/>
<path d="M837 5154 c-7 -7 13 -54 23 -54 15 0 32 30 26 45 -5 15 -37 21 -49 9z"/>
<path d="M745 5134 c-11 -9 -46 -29 -77 -45 -32 -16 -58 -36 -58 -44 0 -8 -6
-12 -14 -9 -20 8 -92 -94 -78 -108 9 -9 17 -7 32 7 11 10 30 23 42 29 12 6 25
22 29 36 l7 25 2 -25 c1 -23 2 -24 10 -5 12 30 87 77 129 80 67 4 81 18 61 56
-13 23 -57 25 -85 3z"/>
<path d="M900 5132 c0 -11 8 -26 19 -36 17 -16 20 -16 50 1 51 30 36 53 -35
53 -26 0 -34 -4 -34 -18z"/>
<path d="M3971 5141 c-18 -11 -7 -27 31 -47 28 -14 31 -14 44 3 26 34 18 53
-23 53 -21 0 -44 -4 -52 -9z"/>
<path d="M4132 5126 c-9 -21 -8 -27 14 -41 14 -9 33 -13 45 -10 20 7 94 -30
118 -59 12 -14 15 -13 31 7 16 20 17 24 3 39 -8 9 -29 22 -46 29 -18 7 -48 23
-67 36 -46 31 -84 30 -98 -1z"/>
<path d="M1010 5117 c0 -14 31 -47 43 -47 12 0 8 35 -5 48 -16 16 -38 15 -38
-1z"/>
<path d="M3915 5110 c-15 -16 -16 -23 -6 -33 9 -9 16 -7 31 13 29 39 8 56 -25
20z"/>
<path d="M880 5099 c-13 -8 -11 -12 10 -29 30 -23 40 -25 40 -7 0 23 -34 47
-50 36z"/>
<path d="M4056 5091 c-26 -28 -16 -43 14 -21 18 13 22 22 14 30 -7 7 -16 5
-28 -9z"/>
<path d="M969 5085 c-35 -19 -42 -41 -23 -71 23 -34 39 -30 63 17 17 32 19 44
10 55 -14 17 -17 17 -50 -1z"/>
<path d="M3943 5081 c-10 -15 -9 -22 1 -31 8 -6 17 -22 20 -35 8 -32 31 -32
52 0 20 30 11 58 -22 73 -33 16 -37 15 -51 -7z"/>
<path d="M813 5063 c-18 -55 -56 -129 -97 -188 -48 -70 -54 -92 -33 -114 10
-11 9 -12 -1 -7 -21 12 -39 -11 -46 -57 -4 -23 -15 -55 -26 -71 l-19 -30 26
-13 c33 -17 33 -17 33 11 0 13 16 48 35 76 24 36 32 56 26 64 -7 8 -4 16 9 24
11 6 24 31 30 54 16 60 64 136 118 186 l47 43 -25 19 c-31 25 -69 26 -77 3z"/>
<path d="M1062 5068 c-16 -16 -15 -33 2 -47 11 -9 15 -6 18 13 6 32 -4 50 -20
34z"/>
<path d="M4083 5065 c-13 -9 -23 -20 -23 -25 0 -6 20 -29 45 -52 53 -50 85
-101 109 -175 21 -62 30 -70 62 -52 31 16 26 33 -31 119 -24 36 -53 88 -65
115 -13 28 -26 57 -30 65 -10 21 -41 23 -67 5z"/>
<path d="M3883 5019 c4 -29 8 -53 10 -55 2 -2 16 0 33 5 23 6 28 13 26 32 -5
51 -12 55 -37 24 -26 -32 -34 -23 -10 9 12 16 12 22 2 28 -25 16 -30 7 -24
-43z"/>
<path d="M1022 5038 c-7 -7 -12 -25 -12 -40 0 -23 4 -28 25 -28 14 0 28 0 32
-1 16 -1 12 18 -10 49 -18 24 -26 29 -35 20z"/>
<path d="M4358 5028 c-16 -14 -34 -53 -19 -44 5 3 11 -1 15 -9 3 -8 11 -15 18
-15 6 0 24 -11 38 -25 23 -22 29 -24 39 -11 10 12 5 23 -25 63 -42 56 -45 57
-66 41z"/>
<path d="M892 4993 c-11 -21 -27 -61 -36 -90 -10 -29 -27 -67 -40 -85 -37 -55
-39 -67 -10 -80 22 -11 28 -9 40 7 8 10 14 27 14 37 0 23 44 123 69 154 l19
24 -5 -62 c-3 -35 -16 -86 -29 -115 -29 -63 -29 -61 -1 -73 20 -9 20 -9 -8 -7
-28 2 -30 0 -36 -44 -4 -25 -14 -61 -24 -78 -9 -18 -15 -34 -13 -34 2 -1 13
-8 26 -15 20 -11 22 -10 22 10 0 12 17 58 39 103 24 50 41 102 45 138 3 32 16
76 27 98 11 23 19 53 17 67 -2 22 -8 27 -30 27 -15 -1 -26 2 -25 5 3 10 -24
50 -33 50 -5 0 -18 -17 -28 -37z"/>
<path d="M4021 5006 c-8 -13 -10 -30 -6 -38 6 -10 5 -11 -6 0 -7 6 -21 12 -31
12 -25 0 -24 -53 1 -111 10 -24 22 -70 26 -101 3 -32 9 -59 13 -62 12 -7 52
13 52 26 0 7 -9 30 -20 51 -12 22 -23 67 -27 105 l-5 67 26 -34 c24 -32 66
-128 66 -152 0 -6 4 -19 10 -29 8 -15 13 -16 35 -7 32 15 31 32 -5 85 -16 24
-38 71 -50 106 -21 63 -45 106 -59 106 -4 0 -13 -11 -20 -24z"/>
<path d="M1020 4945 c0 -8 5 -35 12 -59 10 -39 9 -50 -11 -97 -12 -29 -26 -85
-32 -123 -5 -39 -16 -80 -24 -92 -8 -13 -16 -36 -17 -53 -1 -17 -9 -33 -16
-36 -8 -3 -12 -13 -9 -24 3 -12 -1 -22 -10 -25 -8 -3 -11 -11 -7 -17 8 -13 43
27 44 49 0 7 11 30 25 50 14 20 25 46 25 57 0 11 11 38 25 60 30 50 31 63 3
76 -23 9 -23 10 -1 5 26 -5 33 10 33 67 1 23 7 68 14 100 13 53 13 58 -4 67
-27 15 -50 12 -50 -5z"/>
<path d="M3896 4947 c-17 -13 -18 -18 -6 -65 6 -29 12 -69 12 -90 -1 -55 7
-72 32 -72 34 0 36 7 14 57 -19 44 -20 65 -6 158 4 24 -21 30 -46 12z"/>
<path d="M494 4918 c-17 -26 -44 -82 -44 -90 0 -16 31 -8 37 10 4 9 15 23 25
30 22 16 23 35 4 51 -11 9 -16 9 -22 -1z"/>
<path d="M4452 4918 c-18 -18 -15 -29 18 -68 23 -26 33 -31 42 -22 9 9 8 16
-5 30 -9 10 -17 23 -17 28 0 6 -6 18 -13 27 -10 14 -15 15 -25 5z"/>
<path d="M4268 4746 c-10 -7 -18 -16 -18 -18 0 -3 16 -32 35 -64 19 -32 35
-65 35 -73 0 -9 13 -41 30 -72 16 -31 27 -59 23 -62 -8 -9 18 -38 28 -31 13 8
11 42 -3 47 -10 4 -10 6 0 6 8 1 10 6 6 13 -4 7 -10 28 -14 48 -5 30 -9 35
-32 35 -15 -1 -24 3 -22 7 3 4 12 8 20 8 18 0 18 -2 -6 45 -11 22 -20 50 -20
63 0 30 -17 62 -33 62 -7 0 -20 -7 -29 -14z"/>
<path d="M760 4720 c-6 -10 -10 -31 -10 -47 -1 -15 -7 -45 -15 -66 -12 -35
-11 -41 5 -57 22 -22 30 -16 30 19 1 14 14 50 30 80 31 57 29 74 -10 84 -13 3
-24 -1 -30 -13z"/>
<path d="M4170 4730 c-34 -8 -36 -31 -6 -82 21 -36 30 -66 35 -110 1 -5 10 1
21 12 20 20 20 23 5 72 -8 28 -15 64 -15 79 0 33 -7 38 -40 29z"/>
<path d="M3920 4690 c0 -11 9 -34 20 -52 11 -18 20 -43 20 -55 0 -25 10 -29
27 -12 8 8 7 21 -4 47 -8 20 -12 48 -9 64 5 26 3 28 -24 28 -23 0 -30 -5 -30
-20z"/>
<path d="M4043 4700 l-22 -9 29 -57 c17 -31 30 -67 30 -80 0 -20 4 -24 23 -21
12 2 16 2 10 0 -18 -6 -16 -25 6 -75 11 -24 25 -58 31 -75 12 -31 30 -45 30
-23 0 6 -4 10 -9 10 -5 0 -7 10 -4 21 4 15 0 27 -12 35 -11 8 -13 14 -7 14 9
0 10 5 2 19 -5 11 -7 26 -4 35 3 8 -6 41 -21 73 -14 32 -29 77 -32 100 -6 44
-12 48 -50 33z"/>
<path d="M576 4564 c-3 -9 -6 -26 -6 -39 0 -13 -5 -27 -11 -31 -8 -4 -7 -9 2
-15 8 -5 9 -9 4 -9 -6 0 -11 -18 -11 -40 -1 -26 3 -39 10 -37 6 3 10 10 8 17
-1 7 2 18 9 26 6 8 9 21 5 29 -3 9 -2 13 4 10 6 -3 10 0 10 8 0 8 9 26 21 41
17 21 19 29 9 41 -16 20 -46 19 -54 -1z"/>
<path d="M3987 4563 c-12 -12 -7 -39 11 -59 9 -10 17 -25 17 -33 0 -8 6 -16
13 -18 14 -5 17 23 3 31 -5 4 -12 24 -16 46 -7 39 -14 48 -28 33z"/>
<path d="M713 4538 c-5 -7 -15 -33 -22 -58 -7 -25 -17 -50 -23 -57 -5 -7 -7
-17 -3 -23 3 -5 1 -10 -5 -10 -7 0 -9 -8 -5 -19 3 -11 1 -22 -5 -26 -12 -7 -4
-25 12 -25 5 0 8 6 5 14 -3 8 1 17 10 20 10 4 13 14 10 27 -3 12 -3 18 0 15
11 -11 63 108 58 132 -6 25 -18 28 -32 10z"/>
<path d="M4217 4529 c-5 -18 36 -116 55 -129 3 -3 6 -14 5 -24 -1 -10 4 -21
10 -23 19 -7 29 27 12 38 -10 6 -11 9 -1 9 9 0 9 5 -2 23 -8 12 -18 41 -22 65
-4 26 -14 47 -25 52 -24 14 -26 13 -32 -11z"/>
<path d="M827 4523 c-10 -17 -11 -86 -2 -89 12 -4 43 66 37 84 -4 13 -28 16
-35 5z"/>
<path d="M4030 4431 c0 -5 7 -11 15 -15 9 -3 15 0 15 9 0 8 -7 15 -15 15 -8 0
-15 -4 -15 -9z"/>
<path d="M799 4428 c-5 -14 -6 -88 -1 -83 4 4 7 10 7 13 1 4 6 17 13 30 13 23
9 42 -9 42 -5 0 -9 -1 -10 -2z"/>
<path d="M4395 4411 c-6 -11 9 -23 19 -14 9 9 7 23 -3 23 -6 0 -12 -4 -16 -9z"/>
<path d="M4290 4330 c0 -5 7 -10 15 -10 8 0 15 5 15 10 0 6 -7 10 -15 10 -8 0
-15 -4 -15 -10z"/>
<path d="M2085 2890 c-28 -4 -66 -16 -85 -26 -19 -10 -39 -18 -44 -19 -5 0
-11 -7 -13 -15 -4 -13 -3 -13 6 0 9 11 10 3 7 -33 -3 -30 3 -71 15 -110 12
-39 23 -118 30 -212 5 -82 23 -264 39 -405 48 -420 63 -748 41 -881 -27 -153
-22 -219 13 -189 9 7 14 20 11 30 -4 14 0 16 27 12 26 -4 29 -6 14 -12 -12 -4
-24 -24 -32 -50 -14 -47 -10 -65 12 -56 8 3 14 -1 14 -10 0 -12 4 -13 21 -3
18 9 30 7 65 -11 24 -12 49 -30 54 -41 13 -23 26 -24 34 -3 14 36 -82 99 -140
92 -18 -2 -30 0 -28 4 9 13 63 9 95 -8 17 -8 32 -14 34 -12 2 2 -2 22 -9 43
-10 27 -23 44 -43 52 -15 7 -22 12 -15 13 7 0 27 -7 43 -16 24 -12 34 -13 45
-3 22 18 17 71 -11 108 -42 58 -48 121 -42 411 8 347 35 667 94 1113 23 180
24 200 10 214 -28 29 -152 39 -262 23z m-2 -271 c49 -84 57 -141 56 -409 -2
-300 -14 -668 -17 -495 -2 94 -50 577 -82 816 -7 52 -7 85 0 103 9 24 6 32
-35 75 -25 26 -45 51 -45 55 0 13 99 -103 123 -145z m34 -1211 c-2 -35 -3 -7
-3 62 0 69 1 97 3 63 2 -35 2 -91 0 -125z m-16 -283 l-11 -40 5 40 c3 22 6 78
7 125 l2 85 3 -85 c2 -47 -1 -103 -6 -125z"/>
<path d="M2676 2891 c-55 -8 -79 -32 -71 -71 8 -41 53 -404 69 -560 23 -220
44 -533 52 -750 8 -233 -2 -316 -48 -384 -24 -36 -28 -52 -23 -77 8 -35 28
-47 50 -29 9 7 18 10 22 6 3 -3 1 -6 -5 -6 -13 0 -36 -76 -28 -89 3 -5 -5 -16
-19 -25 -26 -17 -33 -50 -14 -61 6 -4 17 2 25 13 13 19 80 60 69 42 -8 -14 20
-29 43 -23 18 4 20 8 11 19 -10 12 -9 13 5 8 22 -9 20 12 -4 36 -11 11 -16 20
-11 20 6 0 17 -10 25 -22 12 -17 19 -19 27 -11 9 9 8 23 -2 58 -13 44 -15 46
-44 41 -16 -2 -39 -1 -50 4 -17 8 -15 9 10 8 17 -1 45 -1 63 0 l32 2 2 83 2
82 3 -78 c3 -50 0 -84 -8 -93 -14 -16 4 -44 28 -44 12 0 14 13 9 73 -3 39 -8
175 -12 302 -7 247 0 370 42 710 13 110 29 274 35 365 7 100 19 191 30 231 24
84 24 96 2 78 -15 -13 -15 -12 -1 11 16 25 35 106 20 82 -7 -9 -13 -8 -27 8
-10 11 -34 24 -54 30 -51 13 -197 20 -255 11z m279 -191 c-26 -27 -28 -36 -30
-117 -2 -48 -19 -227 -39 -397 -20 -171 -36 -333 -36 -360 0 -28 -4 -57 -9
-64 -4 -8 -11 130 -15 310 -8 351 -2 425 39 515 20 45 98 143 113 143 3 0 -7
-13 -23 -30z m-108 -1157 c-2 -38 -3 -7 -3 67 0 74 1 105 3 68 2 -38 2 -98 0
-135z m10 -265 c-2 -35 -3 -7 -3 62 0 69 1 97 3 63 2 -35 2 -91 0 -125z m-78
-322 c-2 -1 -19 -8 -36 -14 -37 -12 -45 -6 -10 8 22 9 54 13 46 6z"/>
<path d="M2160 901 c-8 -6 -18 -7 -23 -4 -4 3 -18 -3 -30 -14 -21 -18 -21 -18
-7 1 13 16 13 19 1 15 -24 -8 -23 -26 2 -51 29 -27 47 -100 47 -192 0 -55 3
-64 20 -69 27 -7 29 0 19 63 -10 62 -10 188 0 171 4 -6 12 -7 21 -1 21 13 33
12 56 -5 18 -14 17 -14 -8 -4 -21 9 -31 9 -43 -1 -20 -17 -19 -79 1 -101 12
-13 16 -36 15 -78 -1 -54 2 -61 28 -83 24 -21 26 -26 13 -34 -11 -7 -13 -16
-7 -30 5 -10 9 -26 9 -34 1 -25 40 -23 65 4 27 28 23 52 -11 66 -15 5 -17 9
-7 9 22 1 18 41 -10 116 -13 34 -24 88 -25 125 -2 36 -9 75 -17 88 -20 32 -68
28 -82 -8 -4 -12 -6 -12 -6 2 -1 10 9 22 20 29 17 9 19 13 8 20 -18 11 -30 11
-49 0z m-12 -36 c-27 -14 -30 -13 -23 7 4 10 14 14 26 11 19 -5 19 -6 -3 -18z"/>
<path d="M2830 891 c1 -3 7 -17 15 -31 12 -22 14 -23 20 -8 4 9 4 23 0 30 -4
7 1 4 10 -7 l17 -20 -4 20 c-2 14 -12 20 -31 21 -15 1 -27 -2 -27 -5z"/>
<path d="M2695 857 c-10 -16 -17 -52 -19 -99 -2 -48 -11 -91 -25 -122 -26 -60
-28 -103 -3 -109 13 -4 12 -5 -5 -6 -33 -2 -41 -43 -14 -70 31 -31 54 -27 67
14 11 36 8 49 -16 58 -12 4 -12 6 2 6 9 1 26 13 37 28 18 22 20 34 15 75 -6
42 -4 52 15 72 18 19 21 30 15 65 -8 50 -24 60 -62 35 -23 -15 -25 -15 -14 -1
19 23 50 31 67 17 12 -10 16 -9 21 5 18 47 -53 74 -81 32z"/>
<path d="M2786 818 c-13 -122 -13 -251 0 -277 7 -14 17 -38 23 -53 13 -35 41
-37 41 -5 0 15 -9 28 -22 35 -17 8 -19 11 -6 11 23 1 11 40 -16 51 -15 6 -17
9 -5 9 14 1 18 18 23 104 3 56 7 118 8 137 3 29 -1 36 -19 38 -19 3 -22 -3
-27 -50z"/>
<path d="M2077 833 c-4 -3 -8 -27 -8 -52 -1 -30 -3 -36 -6 -18 -6 41 -23 22
-23 -26 0 -24 -9 -59 -21 -81 -22 -42 -23 -41 9 -50 20 -7 22 -4 22 31 1 21 7
52 15 68 l15 30 -3 -50 c-2 -27 -7 -58 -11 -67 -6 -14 -3 -18 15 -19 l24 -1
-23 -6 c-22 -7 -55 -55 -44 -66 12 -12 42 -5 42 9 0 9 7 26 15 39 17 26 32
196 21 240 -6 25 -25 34 -39 19z"/>
<path d="M2857 833 c-4 -3 -7 -60 -7 -125 0 -119 0 -119 23 -112 30 9 30 9 20
41 -12 38 -1 152 15 162 10 6 7 12 -12 24 -29 19 -30 20 -39 10z"/>
<path d="M2045 810 c-3 -5 -1 -10 4 -10 6 0 11 5 11 10 0 6 -2 10 -4 10 -3 0
-8 -4 -11 -10z"/>
<path d="M2906 777 c-5 -10 -5 -37 -1 -60 4 -23 8 -58 9 -77 1 -29 5 -34 21
-32 29 6 31 10 12 41 -9 16 -16 42 -16 58 1 20 3 23 6 8 3 -11 9 -24 14 -29 5
-6 9 -18 9 -27 0 -23 15 -32 41 -24 18 6 19 9 6 23 -8 10 -27 42 -42 72 -24
46 -29 52 -35 35 -7 -18 -8 -18 -12 5 -4 22 -6 23 -12 7z"/>
<path d="M1989 710 c-24 -44 -33 -67 -25 -72 21 -15 36 -8 42 20 4 15 11 32
16 39 5 6 8 27 6 45 -3 33 -3 33 -39 -32z"/>
<path d="M4540 720 c-12 -7 -10 -9 7 -7 12 0 19 5 17 9 -6 10 -6 10 -24 -2z"/>
<path d="M4514 666 c1 -12 11 -22 29 -27 24 -6 27 -4 27 16 0 17 -7 24 -29 27
-23 3 -28 1 -27 -16z"/>
<path d="M1934 612 c-6 -10 -15 -33 -19 -51 -5 -26 -4 -32 6 -29 8 3 14 11 14
19 0 8 10 24 23 37 23 22 22 42 -1 42 -7 0 -17 -8 -23 -18z"/>
<path d="M2991 623 c-11 -4 -9 -10 8 -22 19 -15 27 -31 30 -63 1 -5 5 -8 11
-8 13 0 7 48 -9 78 -12 23 -16 24 -40 15z"/>
<path d="M1987 581 c-3 -11 1 -22 8 -25 15 -5 49 27 38 37 -13 14 -41 6 -46
-12z"/>
<path d="M2930 590 c0 -19 24 -37 42 -32 14 3 15 7 5 23 -12 20 -47 26 -47 9z"/>
<path d="M2865 581 c-3 -5 -1 -12 5 -16 5 -3 10 -15 10 -26 0 -14 7 -19 25
-19 25 0 33 14 15 25 -5 3 -10 15 -10 26 0 20 -34 27 -45 10z"/>
<path d="M2137 558 c-7 -26 -8 -24 19 -32 17 -5 23 -2 27 15 7 28 1 39 -22 39
-11 0 -21 -9 -24 -22z"/>
<path d="M1977 543 c-13 -13 -7 -32 8 -27 8 4 15 12 15 20 0 15 -12 19 -23 7z"/>
<path d="M2966 541 c-7 -10 22 -37 30 -28 9 8 -3 37 -15 37 -5 0 -12 -4 -15
-9z"/>
<path d="M2121 502 c-12 -23 2 -47 23 -39 20 8 22 57 1 57 -8 0 -19 -8 -24
-18z"/>
<path d="M2017 488 c-4 -12 -4 -24 -1 -27 8 -9 39 15 42 33 5 26 -35 20 -41
-6z"/>
<path d="M2907 504 c-8 -8 21 -44 35 -44 5 0 8 10 6 22 -3 23 -27 35 -41 22z"/>
</g>
</svg>
