<?xml version="1.0" standalone="no"?>
<!DOCTYPE svg PUBLIC "-//W3C//DTD SVG 20010904//EN"
 "http://www.w3.org/TR/2001/REC-SVG-20010904/DTD/svg10.dtd">
<svg version="1.0" xmlns="http://www.w3.org/2000/svg"
 width="18.000000pt" height="18.000000pt" viewBox="0 0 18.000000 18.000000"
 preserveAspectRatio="xMidYMid meet">

<g transform="translate(0.000000,18.000000) scale(0.100000,-0.100000)"
fill="#000000" stroke="none">
<path d="M30 90 l0 -80 65 0 65 0 0 64 c0 56 -3 67 -22 80 -12 9 -42 16 -65
16 l-43 0 0 -80z m70 55 c0 -9 9 -15 25 -15 24 0 25 -3 25 -55 l0 -55 -55 0
-55 0 0 70 0 70 30 0 c20 0 30 -5 30 -15z m40 -1 c0 -2 -7 -4 -15 -4 -8 0 -15
4 -15 10 0 5 7 7 15 4 8 -4 15 -8 15 -10z"/>
<path d="M66 107 c-38 -27 2 -95 42 -71 24 16 28 55 6 71 -10 7 -21 13 -24 13
-3 0 -14 -6 -24 -13z m42 -6 c8 -4 12 -19 10 -32 -4 -34 -52 -34 -56 0 -5 32
20 49 46 32z"/>
<path d="M80 72 c9 -19 30 -23 30 -5 0 4 -3 3 -7 0 -3 -4 -12 1 -20 11 -13 15
-13 15 -3 -6z"/>
</g>
</svg>
