<?xml version="1.0" standalone="no"?>
<!DOCTYPE svg PUBLIC "-//W3C//DTD SVG 20010904//EN"
 "http://www.w3.org/TR/2001/REC-SVG-20010904/DTD/svg10.dtd">
<svg version="1.0" xmlns="http://www.w3.org/2000/svg"
 width="105.000000pt" height="69.000000pt" viewBox="0 0 105.000000 69.000000"
 preserveAspectRatio="xMidYMid meet">

<g transform="translate(0.000000,69.000000) scale(0.100000,-0.100000)"
fill="#000000" stroke="none">
<path d="M522 571 c26 -4 60 -16 75 -27 37 -28 89 -54 105 -54 7 0 -5 9 -27
19 -22 10 -58 30 -79 44 -28 20 -50 27 -80 26 l-41 -2 47 -6z"/>
<path d="M439 554 c-18 -22 -78 -51 -121 -59 -23 -4 -57 -1 -91 9 -73 21 -84
19 -22 -4 28 -10 44 -19 38 -19 -10 -1 -13 -26 -13 -91 0 -49 -3 -90 -6 -90
-16 0 -113 94 -117 113 -4 18 -5 17 -6 -5 0 -16 3 -28 8 -28 5 0 67 -58 138
-128 149 -150 182 -168 288 -160 46 4 78 14 112 34 54 31 153 121 153 138 0 7
32 38 70 70 69 57 70 58 70 107 0 36 -5 54 -20 69 -22 22 -26 23 -55 9 -17 -8
-16 -8 7 -4 39 7 58 -17 58 -74 0 -45 -2 -49 -62 -99 l-63 -52 -3 77 -3 78
-57 0 c-43 1 -74 9 -125 33 -81 38 -124 40 -176 8 -45 -29 -102 -46 -154 -46
-31 0 -38 3 -35 17 2 11 21 20 58 28 30 6 69 19 85 28 42 23 82 57 69 57 -6 0
-17 -7 -25 -16z m171 -85 c39 -19 88 -33 124 -36 l59 -6 -7 -86 -6 -86 -59
-56 c-137 -131 -285 -129 -412 4 l-49 50 0 87 0 87 60 6 c41 3 76 14 112 36
67 39 97 39 178 0z"/>
<path d="M385 406 c-5 -3 -31 -7 -57 -11 -27 -3 -48 -10 -48 -15 0 -4 19 -3
43 3 51 13 312 12 385 -1 28 -5 52 -6 52 -2 0 4 -15 10 -32 14 -42 7 -330 17
-343 12z"/>
<path d="M290 330 c0 -15 134 -33 240 -33 104 0 220 17 220 32 0 5 -28 2 -62
-6 -70 -17 -306 -13 -365 6 -18 5 -33 6 -33 1z"/>
<path d="M300 248 c78 -66 217 -94 311 -64 51 17 145 74 136 82 -2 3 -27 -11
-56 -30 -60 -41 -142 -60 -211 -51 -50 7 -162 55 -174 74 -4 6 -13 11 -19 11
-7 -1 -1 -10 13 -22z"/>
<path d="M116 514 c-9 -8 -16 -23 -15 -32 0 -13 3 -11 9 5 5 12 17 26 27 32
10 6 13 11 6 11 -6 0 -19 -7 -27 -16z"/>
<path d="M750 491 l-35 -7 36 -5 c22 -3 40 0 48 8 13 15 10 15 -49 4z"/>
</g>
</svg>
