<?xml version="1.0" encoding="iso-8859-1"?>
<!-- Generator: Adobe Illustrator 19.0.0, SVG Export Plug-In . SVG Version: 6.00 Build 0)  -->
<svg version="1.1" id="Layer_1" xmlns="http://www.w3.org/2000/svg" xmlns:xlink="http://www.w3.org/1999/xlink" x="0px" y="0px"
	 viewBox="0 0 496.2 496.2" style="enable-background:new 0 0 496.2 496.2;" xml:space="preserve">
<path style="fill:#EDC92F;" d="M496.2,248.1C496.2,111.1,385.1,0,248.1,0S0,111.1,0,248.1s111.1,248.1,248.1,248.1
	S496.2,385.1,496.2,248.1z"/>
<path style="fill:#1E2021;" d="M248.1,496.2c86.7,0,163.1-44.5,207.4-112c-0.2-0.5-0.4-1-0.5-1.4c-10.3-27.3-98.6-49.3-207.4-49.3
	s-196.1,22-206.4,49.3c-0.2,0.5-0.4,0.9-0.5,1.4C85,451.6,161.4,496.2,248.1,496.2z"/>
<path style="fill:#C0DD19;" d="M334.3,413c-9.8,0-17.2-6.8-17.2-6.8l0,0l0,0l0,0l0,0c0,0-7.4,6.8-17.2,6.8c1,8.7-1.3,17,0,24.8
	c0.5,3,3.1,6.3,5.1,8.3c3.4,3.3,7.6,5.6,12,7.6l0,0l0,0l0,0l0,0c4.5-1.9,8.6-4.3,12-7.6c2.1-2,4.6-5.2,5.1-8.3
	C335.6,430,333.3,421.7,334.3,413z"/>
<polygon style="fill:#EDEFDA;" points="313.3,440.1 305.3,432.2 308.7,428.8 313.3,433.3 326,420.6 329.4,424 "/>
<g>
	<polygon style="fill:#8E502E;" points="310.2,269.2 186,269.2 173.5,337 233.7,343.1 262.5,343.1 322.7,337 	"/>
	<path style="fill:#8E502E;" d="M173.5,337c0,0,7.3,16.1,74,16.1s75.2-16.1,75.2-16.1l-75.1-34.5L173.5,337z"/>
</g>
<path style="fill:#9B5C32;" d="M336.4,175.2c0-92.4-39.6-105.1-88.3-105.1s-88.3,12.7-88.3,105.1c0,31.3,6.2,75.7,15.5,94.6
	c0,0,8.5,41.3,72.8,41.3s72.8-41.3,72.8-41.3C330.2,250.9,336.4,206.5,336.4,175.2z"/>
<g>
	<path style="fill:#191919;" d="M260.3,186.1c0,0-6.8-1.7-12.2-1.7s-12.2,1.7-12.2,1.7v-4.7c0,0,5.2-1.7,12.2-1.7s12.2,1.7,12.2,1.7
		V186.1z"/>
	<path style="fill:#191919;" d="M182.3,182l-2.1-4l-22.2-0.2c-0.6-0.2-0.7-6.3,0.2-6.1l32.5,0.1L182.3,182z"/>
	<path style="fill:#191919;" d="M314.1,182l2.1-4l22.2-0.2c0.6-0.2,0.7-6.3-0.2-6.1l-32.5,0.1L314.1,182z"/>
	<path style="fill:#191919;" d="M240.2,187c1-14.6-7.7-23.5-27.6-24.8s-30.8-1.3-31.9,15.2c-1.1,16.5,6.5,22,15.6,22.6
		C212,201.1,239.5,198.1,240.2,187z"/>
	<path style="fill:#191919;" d="M256,187c-1-14.6,7.7-23.5,27.6-24.8s30.8-1.3,31.9,15.2s-6.5,22-15.6,22.6
		C284.2,201.1,256.7,198.1,256,187z"/>
	<path style="fill:#191919;" d="M248.1,303.8c-38,0-37.8-26.6-37.8-46.2c0-15.9,12.7-24,37.8-24s37.8,8.1,37.8,24
		C285.9,277.2,286.1,303.8,248.1,303.8z M248.1,239.6c-31.8,0-31.8,13.5-31.8,18c0,16,16.9,25.4,31.8,25.4
		c14.9,0,31.8-9.4,31.8-25.4C279.9,253.1,279.9,239.6,248.1,239.6z"/>
	<path style="fill:#191919;" d="M248.8,258.3c2.1,1.2,3.4,2.4,4.5,3.6c1,1.2,1.7,2.4,2.2,3.6c0.4,1.2,0.4,2.4-0.1,3.6
		s-1.1,2.4-1.4,3.6c-0.6,2.4-1.3,4.8-2.2,7.3c-0.9,2.4-1.8,4.8-2.9,7.2h-1.5c-1.2-2.4-2-4.8-2.9-7.2c-0.9-2.4-1.6-4.8-2.2-7.3
		c-0.3-1.2-0.9-2.4-1.4-3.6s-0.5-2.4-0.1-3.6s1.1-2.4,2.2-3.6c1.1-1.2,2.3-2.4,4.5-3.6H248.8z"/>
</g>
<path style="fill:#9B5C32;" d="M170.4,238.7c-8.4,1.4-14.4,0.1-19.1-27.7s1.7-31.5,10.1-32.9L170.4,238.7z"/>
<g>
	<ellipse style="fill:#191919;" cx="193.3" cy="256.3" rx="11.2" ry="7.2"/>
	<path style="fill:#191919;" d="M191.1,258.6c-0.1,0-0.2,0-0.3,0c-0.7-0.1-18-2.2-26.5-11.3c-8.3-8.8-7-61.1-6.7-71.5
		c0-1.4,1.2-2.5,2.6-2.4c1.4,0,2.5,1.2,2.4,2.6c-0.8,23.3,0,62.3,5.3,68c7.3,7.7,23.3,9.7,23.5,9.7c1.4,0.2,2.4,1.4,2.2,2.8
		C193.4,257.7,192.4,258.6,191.1,258.6z"/>
</g>
<path style="fill:#9B5C32;" d="M325.9,238.7c8.4,1.4,14.3,0.1,19.1-27.7c4.8-27.8-1.7-31.5-10.1-32.9L325.9,238.7z"/>
<g>
	<path style="fill:#2A3F49;" d="M197.7,335.8L197.7,335.8L197.7,335.8z"/>
	<path style="fill:#2A3F49;" d="M311.5,337.4L311.5,337.4L311.5,337.4L311.5,337.4z"/>
	<path style="fill:#2A3F49;" d="M298.5,335.9L298.5,335.9L298.5,335.9z"/>
</g>
<g>
</g>
<g>
</g>
<g>
</g>
<g>
</g>
<g>
</g>
<g>
</g>
<g>
</g>
<g>
</g>
<g>
</g>
<g>
</g>
<g>
</g>
<g>
</g>
<g>
</g>
<g>
</g>
<g>
</g>
</svg>
