<?xml version="1.0" standalone="no"?>
<!DOCTYPE svg PUBLIC "-//W3C//DTD SVG 20010904//EN"
 "http://www.w3.org/TR/2001/REC-SVG-20010904/DTD/svg10.dtd">
<svg version="1.0" xmlns="http://www.w3.org/2000/svg"
 width="225.000000pt" height="225.000000pt" viewBox="0 0 225.000000 225.000000"
 preserveAspectRatio="xMidYMid meet">

<g transform="translate(0.000000,225.000000) scale(0.100000,-0.100000)"
fill="#000000" stroke="none">
<path d="M956 2214 c-135 -30 -266 -96 -391 -195 -41 -32 -75 -61 -75 -64 0
-3 31 -70 70 -151 l69 -146 -25 -38 c-53 -79 -57 -112 -64 -450 -5 -230 -11
-326 -21 -355 -13 -36 -50 -79 -139 -157 -38 -34 -42 -87 -7 -122 13 -13 29
-25 36 -27 8 -3 2 -24 -21 -68 l-33 -64 -3 -179 -4 -178 777 0 777 0 -4 178
-3 179 -33 64 c-23 44 -29 65 -21 68 7 2 23 14 36 27 35 35 31 88 -7 122 -161
142 -160 138 -160 513 0 302 -9 366 -63 448 l-26 39 70 147 c57 119 68 150 58
162 -23 27 -205 142 -280 177 -116 54 -210 76 -334 81 -77 3 -131 0 -179 -11z
m352 -44 c41 -11 107 -36 148 -56 70 -33 247 -145 259 -163 2 -5 -25 -70 -60
-145 -56 -117 -68 -135 -83 -127 -24 12 -174 48 -257 61 -166 26 -408 9 -583
-42 -40 -12 -74 -19 -76 -17 -2 2 -31 63 -65 134 l-62 130 38 33 c108 95 265
176 398 206 91 20 244 14 343 -14z m-277 -714 c118 -56 266 -107 392 -136 53
-12 100 -26 102 -31 11 -17 -28 -167 -60 -235 -44 -91 -129 -173 -212 -204
-46 -17 -74 -21 -133 -18 -99 5 -172 38 -249 116 -69 68 -105 135 -133 243
-16 67 -18 88 -9 131 19 89 68 144 149 168 46 14 56 12 153 -34z m-20 -640
c69 -28 179 -29 252 -1 13 6 17 2 17 -19 0 -69 60 -143 140 -173 l51 -19 -29
-40 c-66 -91 -256 -226 -317 -226 -63 -1 -280 159 -328 241 l-18 30 43 13 c65
19 114 72 134 146 10 34 18 62 19 62 2 0 18 -6 36 -14z m-241 -256 c18 -28 61
-76 95 -108 61 -56 225 -152 260 -152 10 0 58 21 107 47 101 53 202 139 245
209 l28 46 70 -5 c116 -7 204 -66 257 -174 31 -64 32 -70 36 -219 l4 -154
-747 0 -747 0 4 152 c3 139 6 158 29 208 59 126 154 187 310 199 10 0 30 -20
49 -49z"/>
<path d="M1077 2114 c-4 -4 -7 -22 -7 -40 0 -31 -2 -33 -37 -36 l-38 -3 0 -50
0 -50 37 -3 c35 -3 37 -5 40 -40 l3 -37 50 0 50 0 3 37 c3 35 5 37 40 40 l37
3 0 50 0 50 -37 3 c-35 3 -37 5 -40 40 -3 36 -4 37 -48 40 -25 2 -49 0 -53 -4z"/>
</g>
</svg>
