<?xml version="1.0" encoding="UTF-8"?>
<svg xmlns="http://www.w3.org/2000/svg" xmlns:xlink="http://www.w3.org/1999/xlink" width="40px" height="40px" viewBox="0 0 40 40" version="1.1">
<g id="surface1">
<path style=" stroke:none;fill-rule:nonzero;fill:rgb(80.392157%,85.098039%,86.666667%);fill-opacity:1;" d="M 24.871094 3.886719 L 33.75 3.886719 L 33.75 5.851562 L 24.871094 5.851562 Z M 24.871094 3.886719 "/>
<path style=" stroke:none;fill-rule:nonzero;fill:rgb(59.607843%,83.529412%,46.666667%);fill-opacity:1;" d="M 37.277344 30.65625 L 37.277344 33.246094 C 37.277344 34.828125 35.992188 36.113281 34.410156 36.113281 L 24.214844 36.113281 C 22.632812 36.113281 21.34375 34.828125 21.34375 33.246094 L 21.34375 30.65625 Z M 37.277344 30.65625 "/>
<path style=" stroke:none;fill-rule:nonzero;fill:rgb(0%,0%,0%);fill-opacity:1;" d="M 39.964844 11.410156 L 39.964844 33.246094 C 39.964844 36.308594 37.472656 38.800781 34.410156 38.800781 L 24.214844 38.800781 C 21.148438 38.800781 18.65625 36.308594 18.65625 33.246094 L 18.65625 11.410156 C 18.65625 9.0625 20.121094 7.050781 22.183594 6.238281 L 22.183594 2.542969 C 22.183594 1.800781 22.785156 1.199219 23.527344 1.199219 L 35.09375 1.199219 C 35.835938 1.199219 36.441406 1.800781 36.441406 2.542969 L 36.441406 6.238281 C 38.503906 7.050781 39.964844 9.0625 39.964844 11.410156 Z M 37.277344 33.246094 L 37.277344 30.65625 L 21.34375 30.65625 L 21.34375 33.246094 C 21.34375 34.828125 22.632812 36.113281 24.214844 36.113281 L 34.410156 36.113281 C 35.992188 36.113281 37.277344 34.828125 37.277344 33.246094 Z M 37.277344 27.964844 L 37.277344 16.691406 L 21.34375 16.691406 L 21.34375 27.964844 Z M 37.277344 14 L 37.277344 11.410156 C 37.277344 9.828125 35.992188 8.542969 34.410156 8.542969 L 24.214844 8.542969 C 22.632812 8.542969 21.34375 9.828125 21.34375 11.410156 L 21.34375 14 Z M 33.75 5.851562 L 33.75 3.886719 L 24.871094 3.886719 L 24.871094 5.851562 Z M 33.75 5.851562 "/>
<path style=" stroke:none;fill-rule:nonzero;fill:rgb(0%,75.294118%,55.294118%);fill-opacity:1;" d="M 37.277344 16.691406 L 37.277344 27.964844 L 21.34375 27.964844 L 21.34375 16.691406 Z M 33.40625 22.328125 C 33.40625 21.585938 32.804688 20.984375 32.0625 20.984375 L 30.65625 20.984375 L 30.65625 19.578125 C 30.65625 18.835938 30.054688 18.230469 29.3125 18.230469 C 28.570312 18.230469 27.964844 18.835938 27.964844 19.578125 L 27.964844 20.984375 L 26.558594 20.984375 C 25.816406 20.984375 25.214844 21.585938 25.214844 22.328125 C 25.214844 23.070312 25.816406 23.671875 26.558594 23.671875 L 27.964844 23.671875 L 27.964844 25.078125 C 27.964844 25.820312 28.570312 26.421875 29.3125 26.421875 C 30.054688 26.421875 30.65625 25.820312 30.65625 25.078125 L 30.65625 23.671875 L 32.0625 23.671875 C 32.804688 23.671875 33.40625 23.070312 33.40625 22.328125 Z M 33.40625 22.328125 "/>
<path style=" stroke:none;fill-rule:nonzero;fill:rgb(59.607843%,83.529412%,46.666667%);fill-opacity:1;" d="M 37.277344 11.410156 L 37.277344 14 L 21.34375 14 L 21.34375 11.410156 C 21.34375 9.828125 22.632812 8.542969 24.214844 8.542969 L 34.410156 8.542969 C 35.992188 8.542969 37.277344 9.828125 37.277344 11.410156 Z M 37.277344 11.410156 "/>
<path style=" stroke:none;fill-rule:nonzero;fill:rgb(0%,0%,0%);fill-opacity:1;" d="M 32.0625 20.984375 C 32.804688 20.984375 33.40625 21.585938 33.40625 22.328125 C 33.40625 23.070312 32.804688 23.671875 32.0625 23.671875 L 30.65625 23.671875 L 30.65625 25.078125 C 30.65625 25.820312 30.054688 26.421875 29.3125 26.421875 C 28.570312 26.421875 27.964844 25.820312 27.964844 25.078125 L 27.964844 23.671875 L 26.558594 23.671875 C 25.816406 23.671875 25.214844 23.070312 25.214844 22.328125 C 25.214844 21.585938 25.816406 20.984375 26.558594 20.984375 L 27.964844 20.984375 L 27.964844 19.578125 C 27.964844 18.835938 28.570312 18.230469 29.3125 18.230469 C 30.054688 18.230469 30.65625 18.835938 30.65625 19.578125 L 30.65625 20.984375 Z M 32.0625 20.984375 "/>
<path style=" stroke:none;fill-rule:nonzero;fill:rgb(0%,0%,0%);fill-opacity:1;" d="M 16.691406 11.6875 L 16.691406 35.296875 C 16.691406 37.230469 15.117188 38.800781 13.183594 38.800781 L 3.542969 38.800781 C 1.605469 38.800781 0.0351562 37.230469 0.0351562 35.296875 L 0.0351562 11.6875 C 0.0351562 9.753906 1.605469 8.179688 3.542969 8.179688 L 13.183594 8.179688 C 15.117188 8.179688 16.691406 9.753906 16.691406 11.6875 Z M 14 35.296875 L 14 11.6875 C 14 11.234375 13.632812 10.871094 13.183594 10.871094 L 3.542969 10.871094 C 3.089844 10.871094 2.722656 11.234375 2.722656 11.6875 L 2.722656 35.296875 C 2.722656 35.746094 3.089844 36.113281 3.542969 36.113281 L 13.183594 36.113281 C 13.632812 36.113281 14 35.746094 14 35.296875 Z M 14 35.296875 "/>
<path style=" stroke:none;fill-rule:nonzero;fill:rgb(67.45098%,74.901961%,78.039216%);fill-opacity:1;" d="M 14 11.6875 L 14 35.296875 C 14 35.746094 13.632812 36.113281 13.183594 36.113281 L 3.542969 36.113281 C 3.089844 36.113281 2.722656 35.746094 2.722656 35.296875 L 2.722656 11.6875 C 2.722656 11.234375 3.089844 10.871094 3.542969 10.871094 L 13.183594 10.871094 C 13.632812 10.871094 14 11.234375 14 11.6875 Z M 12.035156 14.179688 C 12.035156 13.828125 11.890625 13.480469 11.640625 13.230469 C 11.390625 12.980469 11.042969 12.835938 10.6875 12.835938 C 10.335938 12.835938 9.988281 12.980469 9.738281 13.230469 C 9.488281 13.480469 9.34375 13.828125 9.34375 14.179688 C 9.34375 14.535156 9.488281 14.882812 9.738281 15.132812 C 9.988281 15.382812 10.335938 15.523438 10.6875 15.523438 C 11.042969 15.523438 11.390625 15.382812 11.640625 15.132812 C 11.890625 14.882812 12.035156 14.535156 12.035156 14.179688 Z M 12.035156 18.835938 C 12.035156 18.480469 11.890625 18.136719 11.640625 17.886719 C 11.390625 17.636719 11.042969 17.492188 10.6875 17.492188 C 10.335938 17.492188 9.988281 17.636719 9.738281 17.886719 C 9.488281 18.136719 9.34375 18.480469 9.34375 18.835938 C 9.34375 19.191406 9.488281 19.535156 9.738281 19.785156 C 9.988281 20.039062 10.335938 20.179688 10.6875 20.179688 C 11.042969 20.179688 11.390625 20.039062 11.640625 19.785156 C 11.890625 19.535156 12.035156 19.191406 12.035156 18.835938 Z M 12.035156 28.148438 C 12.035156 27.792969 11.890625 27.445312 11.640625 27.195312 C 11.390625 26.945312 11.042969 26.800781 10.6875 26.800781 C 10.335938 26.800781 9.988281 26.945312 9.738281 27.195312 C 9.488281 27.445312 9.34375 27.792969 9.34375 28.148438 C 9.34375 28.5 9.488281 28.847656 9.738281 29.097656 C 9.988281 29.347656 10.335938 29.492188 10.6875 29.492188 C 11.042969 29.492188 11.390625 29.347656 11.640625 29.097656 C 11.890625 28.847656 12.035156 28.5 12.035156 28.148438 Z M 12.035156 32.800781 C 12.035156 32.449219 11.890625 32.101562 11.640625 31.851562 C 11.390625 31.601562 11.042969 31.457031 10.6875 31.457031 C 10.335938 31.457031 9.988281 31.601562 9.738281 31.851562 C 9.488281 32.101562 9.34375 32.449219 9.34375 32.800781 C 9.34375 33.15625 9.488281 33.503906 9.738281 33.753906 C 9.988281 34.003906 10.335938 34.148438 10.6875 34.148438 C 11.042969 34.148438 11.390625 34.003906 11.640625 33.753906 C 11.890625 33.503906 12.035156 33.15625 12.035156 32.800781 Z M 12.035156 23.492188 C 12.035156 23.136719 11.890625 22.792969 11.640625 22.542969 C 11.390625 22.292969 11.042969 22.148438 10.6875 22.148438 C 10.335938 22.148438 9.988281 22.292969 9.738281 22.542969 C 9.488281 22.792969 9.34375 23.136719 9.34375 23.492188 C 9.34375 23.84375 9.488281 24.191406 9.738281 24.441406 C 9.988281 24.691406 10.335938 24.835938 10.6875 24.835938 C 11.042969 24.835938 11.390625 24.691406 11.640625 24.441406 C 11.890625 24.191406 12.035156 23.84375 12.035156 23.492188 Z M 7.378906 14.179688 C 7.378906 13.828125 7.234375 13.480469 6.984375 13.230469 C 6.734375 12.980469 6.386719 12.835938 6.035156 12.835938 C 5.679688 12.835938 5.332031 12.980469 5.082031 13.230469 C 4.832031 13.480469 4.691406 13.828125 4.691406 14.179688 C 4.691406 14.535156 4.832031 14.882812 5.082031 15.132812 C 5.332031 15.382812 5.679688 15.523438 6.035156 15.523438 C 6.386719 15.523438 6.734375 15.382812 6.984375 15.132812 C 7.234375 14.882812 7.378906 14.535156 7.378906 14.179688 Z M 7.378906 18.835938 C 7.378906 18.480469 7.234375 18.136719 6.984375 17.886719 C 6.734375 17.636719 6.386719 17.492188 6.035156 17.492188 C 5.679688 17.492188 5.332031 17.636719 5.082031 17.886719 C 4.832031 18.136719 4.691406 18.480469 4.691406 18.835938 C 4.691406 19.191406 4.832031 19.535156 5.082031 19.785156 C 5.332031 20.039062 5.679688 20.179688 6.035156 20.179688 C 6.386719 20.179688 6.734375 20.039062 6.984375 19.785156 C 7.234375 19.535156 7.378906 19.191406 7.378906 18.835938 Z M 7.378906 23.492188 C 7.378906 23.136719 7.234375 22.792969 6.984375 22.542969 C 6.734375 22.292969 6.386719 22.148438 6.035156 22.148438 C 5.679688 22.148438 5.332031 22.292969 5.082031 22.542969 C 4.832031 22.792969 4.691406 23.136719 4.691406 23.492188 C 4.691406 23.84375 4.832031 24.191406 5.082031 24.441406 C 5.332031 24.691406 5.679688 24.835938 6.035156 24.835938 C 6.386719 24.835938 6.734375 24.691406 6.984375 24.441406 C 7.234375 24.191406 7.378906 23.84375 7.378906 23.492188 Z M 7.378906 28.148438 C 7.378906 27.792969 7.234375 27.449219 6.984375 27.195312 C 6.734375 26.945312 6.386719 26.800781 6.035156 26.800781 C 5.679688 26.800781 5.332031 26.945312 5.082031 27.195312 C 4.832031 27.445312 4.691406 27.792969 4.691406 28.148438 C 4.691406 28.5 4.832031 28.847656 5.082031 29.097656 C 5.332031 29.347656 5.679688 29.492188 6.035156 29.492188 C 6.386719 29.492188 6.734375 29.347656 6.984375 29.097656 C 7.234375 28.847656 7.378906 28.5 7.378906 28.148438 Z M 7.378906 32.800781 C 7.378906 32.449219 7.234375 32.101562 6.984375 31.851562 C 6.734375 31.601562 6.386719 31.457031 6.035156 31.457031 C 5.679688 31.457031 5.332031 31.601562 5.082031 31.851562 C 4.832031 32.101562 4.691406 32.449219 4.691406 32.800781 C 4.691406 33.15625 4.832031 33.503906 5.082031 33.753906 C 5.332031 34.003906 5.679688 34.148438 6.035156 34.148438 C 6.386719 34.148438 6.734375 34.003906 6.984375 33.753906 C 7.234375 33.503906 7.378906 33.15625 7.378906 32.800781 Z M 7.378906 32.800781 "/>
<path style=" stroke:none;fill-rule:nonzero;fill:rgb(0%,0%,0%);fill-opacity:1;" d="M 11.640625 13.230469 C 11.890625 13.480469 12.035156 13.828125 12.035156 14.179688 C 12.035156 14.535156 11.890625 14.882812 11.640625 15.132812 C 11.390625 15.382812 11.042969 15.523438 10.6875 15.523438 C 10.335938 15.523438 9.988281 15.382812 9.738281 15.132812 C 9.488281 14.882812 9.34375 14.535156 9.34375 14.179688 C 9.34375 13.828125 9.488281 13.480469 9.738281 13.230469 C 9.988281 12.980469 10.335938 12.835938 10.6875 12.835938 C 11.042969 12.835938 11.390625 12.980469 11.640625 13.230469 Z M 11.640625 13.230469 "/>
<path style=" stroke:none;fill-rule:nonzero;fill:rgb(0%,0%,0%);fill-opacity:1;" d="M 11.640625 17.886719 C 11.890625 18.136719 12.035156 18.480469 12.035156 18.835938 C 12.035156 19.191406 11.890625 19.535156 11.640625 19.785156 C 11.390625 20.039062 11.042969 20.179688 10.6875 20.179688 C 10.335938 20.179688 9.988281 20.039062 9.738281 19.785156 C 9.488281 19.535156 9.34375 19.191406 9.34375 18.835938 C 9.34375 18.480469 9.488281 18.136719 9.738281 17.886719 C 9.988281 17.636719 10.335938 17.492188 10.6875 17.492188 C 11.042969 17.492188 11.390625 17.636719 11.640625 17.886719 Z M 11.640625 17.886719 "/>
<path style=" stroke:none;fill-rule:nonzero;fill:rgb(0%,0%,0%);fill-opacity:1;" d="M 11.640625 27.195312 C 11.890625 27.445312 12.035156 27.792969 12.035156 28.148438 C 12.035156 28.5 11.890625 28.847656 11.640625 29.097656 C 11.390625 29.347656 11.042969 29.492188 10.6875 29.492188 C 10.335938 29.492188 9.988281 29.347656 9.738281 29.097656 C 9.488281 28.847656 9.34375 28.5 9.34375 28.148438 C 9.34375 27.792969 9.488281 27.445312 9.738281 27.195312 C 9.988281 26.945312 10.335938 26.800781 10.6875 26.800781 C 11.042969 26.800781 11.390625 26.945312 11.640625 27.195312 Z M 11.640625 27.195312 "/>
<path style=" stroke:none;fill-rule:nonzero;fill:rgb(0%,0%,0%);fill-opacity:1;" d="M 11.640625 31.851562 C 11.890625 32.101562 12.035156 32.449219 12.035156 32.800781 C 12.035156 33.15625 11.890625 33.503906 11.640625 33.753906 C 11.390625 34.003906 11.042969 34.148438 10.6875 34.148438 C 10.335938 34.148438 9.988281 34.003906 9.738281 33.753906 C 9.488281 33.503906 9.34375 33.15625 9.34375 32.800781 C 9.34375 32.449219 9.488281 32.101562 9.738281 31.851562 C 9.988281 31.601562 10.335938 31.457031 10.6875 31.457031 C 11.042969 31.457031 11.390625 31.601562 11.640625 31.851562 Z M 11.640625 31.851562 "/>
<path style=" stroke:none;fill-rule:nonzero;fill:rgb(0%,0%,0%);fill-opacity:1;" d="M 11.640625 22.542969 C 11.890625 22.792969 12.035156 23.136719 12.035156 23.492188 C 12.035156 23.84375 11.890625 24.191406 11.640625 24.441406 C 11.390625 24.691406 11.042969 24.835938 10.6875 24.835938 C 10.335938 24.835938 9.988281 24.691406 9.738281 24.441406 C 9.488281 24.191406 9.34375 23.84375 9.34375 23.492188 C 9.34375 23.136719 9.488281 22.792969 9.738281 22.542969 C 9.988281 22.292969 10.335938 22.148438 10.6875 22.148438 C 11.042969 22.148438 11.390625 22.292969 11.640625 22.542969 Z M 11.640625 22.542969 "/>
<path style=" stroke:none;fill-rule:nonzero;fill:rgb(0%,0%,0%);fill-opacity:1;" d="M 6.984375 13.230469 C 7.234375 13.480469 7.378906 13.828125 7.378906 14.179688 C 7.378906 14.535156 7.234375 14.882812 6.984375 15.132812 C 6.734375 15.382812 6.386719 15.523438 6.035156 15.523438 C 5.679688 15.523438 5.332031 15.382812 5.082031 15.132812 C 4.832031 14.882812 4.691406 14.535156 4.691406 14.179688 C 4.691406 13.828125 4.832031 13.480469 5.082031 13.230469 C 5.332031 12.980469 5.679688 12.835938 6.035156 12.835938 C 6.386719 12.835938 6.734375 12.980469 6.984375 13.230469 Z M 6.984375 13.230469 "/>
<path style=" stroke:none;fill-rule:nonzero;fill:rgb(0%,0%,0%);fill-opacity:1;" d="M 6.984375 17.886719 C 7.234375 18.136719 7.378906 18.480469 7.378906 18.835938 C 7.378906 19.191406 7.234375 19.535156 6.984375 19.785156 C 6.734375 20.039062 6.386719 20.179688 6.035156 20.179688 C 5.679688 20.179688 5.332031 20.039062 5.082031 19.785156 C 4.832031 19.535156 4.691406 19.191406 4.691406 18.835938 C 4.691406 18.480469 4.832031 18.136719 5.082031 17.886719 C 5.332031 17.636719 5.679688 17.492188 6.035156 17.492188 C 6.386719 17.492188 6.734375 17.636719 6.984375 17.886719 Z M 6.984375 17.886719 "/>
<path style=" stroke:none;fill-rule:nonzero;fill:rgb(0%,0%,0%);fill-opacity:1;" d="M 6.984375 22.542969 C 7.234375 22.792969 7.378906 23.136719 7.378906 23.492188 C 7.378906 23.84375 7.234375 24.191406 6.984375 24.441406 C 6.734375 24.691406 6.386719 24.835938 6.035156 24.835938 C 5.679688 24.835938 5.332031 24.691406 5.082031 24.441406 C 4.832031 24.191406 4.691406 23.84375 4.691406 23.492188 C 4.691406 23.136719 4.832031 22.792969 5.082031 22.542969 C 5.332031 22.292969 5.679688 22.148438 6.035156 22.148438 C 6.386719 22.148438 6.734375 22.292969 6.984375 22.542969 Z M 6.984375 22.542969 "/>
<path style=" stroke:none;fill-rule:nonzero;fill:rgb(0%,0%,0%);fill-opacity:1;" d="M 6.984375 27.195312 C 7.234375 27.449219 7.378906 27.792969 7.378906 28.148438 C 7.378906 28.5 7.234375 28.847656 6.984375 29.097656 C 6.734375 29.347656 6.386719 29.492188 6.035156 29.492188 C 5.679688 29.492188 5.332031 29.347656 5.082031 29.097656 C 4.832031 28.847656 4.691406 28.5 4.691406 28.148438 C 4.691406 27.792969 4.832031 27.445312 5.082031 27.195312 C 5.332031 26.945312 5.679688 26.800781 6.035156 26.800781 C 6.386719 26.800781 6.734375 26.945312 6.984375 27.195312 Z M 6.984375 27.195312 "/>
<path style=" stroke:none;fill-rule:nonzero;fill:rgb(0%,0%,0%);fill-opacity:1;" d="M 6.984375 31.851562 C 7.234375 32.101562 7.378906 32.449219 7.378906 32.800781 C 7.378906 33.15625 7.234375 33.503906 6.984375 33.753906 C 6.734375 34.003906 6.386719 34.148438 6.035156 34.148438 C 5.679688 34.148438 5.332031 34.003906 5.082031 33.753906 C 4.832031 33.503906 4.691406 33.15625 4.691406 32.800781 C 4.691406 32.449219 4.832031 32.101562 5.082031 31.851562 C 5.332031 31.601562 5.679688 31.457031 6.035156 31.457031 C 6.386719 31.457031 6.734375 31.601562 6.984375 31.851562 Z M 6.984375 31.851562 "/>
</g>
</svg>
